<mxfile host="app.diagrams.net" modified="2023-06-03T15:59:44.290Z" agent="Mozilla/5.0 (X11; Ubuntu; Linux x86_64; rv:109.0) Gecko/20100101 Firefox/113.0" etag="GovC03m8J6htKZU-DMM9" version="21.3.7" type="github">
  <diagram name="Page-1" id="e3a06f82-3646-2815-327d-82caf3d4e204">
    <mxGraphModel dx="1226" dy="678" grid="1" gridSize="10" guides="1" tooltips="1" connect="1" arrows="1" fold="1" page="1" pageScale="1.5" pageWidth="1169" pageHeight="826" background="none" math="0" shadow="0">
      <root>
        <mxCell id="0" style=";html=1;" />
        <mxCell id="1" style=";html=1;" parent="0" />
        <mxCell id="iFL5_eWSD0b4RR7BCdqi-5" value="" style="rounded=1;whiteSpace=wrap;html=1;strokeWidth=1.5;comic=0;fillColor=none;strokeColor=#EA6B66;" parent="1" vertex="1">
          <mxGeometry x="610" y="90" width="320" height="570" as="geometry" />
        </mxCell>
        <mxCell id="MxSaWljoCHivLz9KyoG4-4" value="" style="rounded=1;whiteSpace=wrap;html=1;strokeWidth=1.5;comic=0;fillColor=none;strokeColor=#EA6B66;" parent="1" vertex="1">
          <mxGeometry x="280" y="90" width="310" height="570" as="geometry" />
        </mxCell>
        <mxCell id="sc8MJLwOmtzSrlmjD8fI-22" value="" style="rounded=0;whiteSpace=wrap;html=1;strokeWidth=0.5;dashed=1;fillColor=#f5f5f5;fontColor=#333333;strokeColor=#666666;comic=0;" parent="1" vertex="1">
          <mxGeometry x="300" y="120" width="280" height="380" as="geometry" />
        </mxCell>
        <mxCell id="sc8MJLwOmtzSrlmjD8fI-8" value="POD" style="rounded=0;whiteSpace=wrap;html=1;strokeWidth=0.5;fillColor=#dae8fc;strokeColor=#6c8ebf;comic=0;" parent="1" vertex="1">
          <mxGeometry x="320" y="180" width="109" height="59" as="geometry" />
        </mxCell>
        <mxCell id="6a7d8f32e03d9370-61" value="&lt;div&gt;&lt;br&gt;&lt;/div&gt;&lt;div&gt;cni0(linux bridge)&lt;/div&gt;" style="whiteSpace=wrap;html=1;fillColor=#f8cecc;fontSize=14;strokeColor=#b85450;verticalAlign=top;strokeWidth=0.5;comic=0;" parent="1" vertex="1">
          <mxGeometry x="320" y="300" width="240" height="60" as="geometry" />
        </mxCell>
        <mxCell id="sc8MJLwOmtzSrlmjD8fI-23" value="VM01" style="text;html=1;strokeColor=none;fillColor=none;align=center;verticalAlign=middle;whiteSpace=wrap;rounded=0;comic=0;" parent="1" vertex="1">
          <mxGeometry x="409" y="120" width="60" height="30" as="geometry" />
        </mxCell>
        <mxCell id="GQ9nSxZWVriDuMtLlA-Z-1" value="POD" style="rounded=0;whiteSpace=wrap;html=1;strokeWidth=0.5;fillColor=#d5e8d4;strokeColor=#82b366;comic=0;" parent="1" vertex="1">
          <mxGeometry x="449" y="180" width="111" height="59" as="geometry" />
        </mxCell>
        <mxCell id="GQ9nSxZWVriDuMtLlA-Z-3" value="&lt;font style=&quot;font-size: 11px;&quot;&gt;eth0&lt;/font&gt;" style="rounded=0;whiteSpace=wrap;html=1;strokeWidth=0.5;fillColor=#dae8fc;strokeColor=#6c8ebf;dashed=1;comic=0;" parent="1" vertex="1">
          <mxGeometry x="354" y="220" width="30" height="30" as="geometry" />
        </mxCell>
        <mxCell id="GQ9nSxZWVriDuMtLlA-Z-8" value="veth" style="rounded=0;whiteSpace=wrap;html=1;strokeWidth=0.5;fillColor=#dae8fc;strokeColor=#6c8ebf;dashed=1;comic=0;" parent="1" vertex="1">
          <mxGeometry x="354" y="290" width="30" height="30" as="geometry" />
        </mxCell>
        <mxCell id="GQ9nSxZWVriDuMtLlA-Z-10" value="1" style="endArrow=classic;startArrow=classic;html=1;rounded=0;entryX=0.5;entryY=1;entryDx=0;entryDy=0;exitX=0.5;exitY=0;exitDx=0;exitDy=0;comic=0;" parent="1" source="GQ9nSxZWVriDuMtLlA-Z-8" target="GQ9nSxZWVriDuMtLlA-Z-3" edge="1">
          <mxGeometry width="50" height="50" relative="1" as="geometry">
            <mxPoint x="79" y="380" as="sourcePoint" />
            <mxPoint x="129" y="330" as="targetPoint" />
          </mxGeometry>
        </mxCell>
        <mxCell id="GQ9nSxZWVriDuMtLlA-Z-11" value="&lt;font style=&quot;font-size: 11px;&quot;&gt;eth0&lt;/font&gt;" style="rounded=0;whiteSpace=wrap;html=1;strokeWidth=0.5;fillColor=#d5e8d4;strokeColor=#82b366;dashed=1;comic=0;" parent="1" vertex="1">
          <mxGeometry x="494" y="220" width="30" height="30" as="geometry" />
        </mxCell>
        <mxCell id="GQ9nSxZWVriDuMtLlA-Z-13" value="veth" style="rounded=0;whiteSpace=wrap;html=1;strokeWidth=0.5;fillColor=#d5e8d4;strokeColor=#82b366;dashed=1;comic=0;" parent="1" vertex="1">
          <mxGeometry x="494" y="290" width="30" height="30" as="geometry" />
        </mxCell>
        <mxCell id="GQ9nSxZWVriDuMtLlA-Z-14" value="" style="endArrow=classic;startArrow=classic;html=1;rounded=0;entryX=0.5;entryY=1;entryDx=0;entryDy=0;exitX=0.5;exitY=0;exitDx=0;exitDy=0;comic=0;" parent="1" source="GQ9nSxZWVriDuMtLlA-Z-13" target="GQ9nSxZWVriDuMtLlA-Z-11" edge="1">
          <mxGeometry width="50" height="50" relative="1" as="geometry">
            <mxPoint x="99" y="370" as="sourcePoint" />
            <mxPoint x="149" y="320" as="targetPoint" />
          </mxGeometry>
        </mxCell>
        <mxCell id="XjlNCTNv254b6shq8vdB-21" value="" style="whiteSpace=wrap;html=1;fillColor=#e1d5e7;fontSize=14;strokeColor=#9673a6;verticalAlign=top;strokeWidth=0.5;comic=0;" parent="1" vertex="1">
          <mxGeometry x="320" y="401" width="240" height="39" as="geometry" />
        </mxCell>
        <mxCell id="XjlNCTNv254b6shq8vdB-22" value="&lt;div&gt;&lt;br&gt;&lt;/div&gt;&lt;div&gt;flannel.1&lt;/div&gt;" style="text;html=1;strokeColor=none;fillColor=none;align=center;verticalAlign=middle;whiteSpace=wrap;rounded=0;comic=0;" parent="1" vertex="1">
          <mxGeometry x="409" y="411" width="60" height="10" as="geometry" />
        </mxCell>
        <mxCell id="XjlNCTNv254b6shq8vdB-24" value="" style="rounded=0;whiteSpace=wrap;html=1;strokeWidth=0.5;dashed=1;fillColor=#f5f5f5;fontColor=#333333;strokeColor=#666666;comic=0;" parent="1" vertex="1">
          <mxGeometry x="631" y="120" width="280" height="380" as="geometry" />
        </mxCell>
        <mxCell id="XjlNCTNv254b6shq8vdB-25" value="POD" style="rounded=0;whiteSpace=wrap;html=1;strokeWidth=0.5;fillColor=#dae8fc;strokeColor=#6c8ebf;comic=0;" parent="1" vertex="1">
          <mxGeometry x="651" y="180" width="109" height="59" as="geometry" />
        </mxCell>
        <mxCell id="XjlNCTNv254b6shq8vdB-26" value="&lt;div&gt;&lt;br&gt;&lt;/div&gt;&lt;div&gt;cni0(linux bridge)&lt;/div&gt;" style="whiteSpace=wrap;html=1;fillColor=#f8cecc;fontSize=14;strokeColor=#b85450;verticalAlign=top;strokeWidth=0.5;comic=0;" parent="1" vertex="1">
          <mxGeometry x="651" y="300" width="240" height="60" as="geometry" />
        </mxCell>
        <mxCell id="XjlNCTNv254b6shq8vdB-27" value="VM02" style="text;html=1;strokeColor=none;fillColor=none;align=center;verticalAlign=middle;whiteSpace=wrap;rounded=0;comic=0;" parent="1" vertex="1">
          <mxGeometry x="740" y="120" width="60" height="30" as="geometry" />
        </mxCell>
        <mxCell id="XjlNCTNv254b6shq8vdB-28" value="NIC" style="shadow=0;dashed=0;html=1;labelPosition=center;verticalLabelPosition=bottom;verticalAlign=top;align=center;outlineConnect=0;shape=mxgraph.veeam.3d.network_card;comic=0;" parent="1" vertex="1">
          <mxGeometry x="410" y="640" width="38" height="40" as="geometry" />
        </mxCell>
        <mxCell id="XjlNCTNv254b6shq8vdB-29" value="POD" style="rounded=0;whiteSpace=wrap;html=1;strokeWidth=0.5;fillColor=#d5e8d4;strokeColor=#82b366;comic=0;" parent="1" vertex="1">
          <mxGeometry x="780" y="180" width="111" height="59" as="geometry" />
        </mxCell>
        <mxCell id="XjlNCTNv254b6shq8vdB-30" value="&lt;font style=&quot;font-size: 11px;&quot;&gt;eth0&lt;/font&gt;" style="rounded=0;whiteSpace=wrap;html=1;strokeWidth=0.5;fillColor=#dae8fc;strokeColor=#6c8ebf;dashed=1;comic=0;" parent="1" vertex="1">
          <mxGeometry x="685" y="220" width="30" height="30" as="geometry" />
        </mxCell>
        <mxCell id="XjlNCTNv254b6shq8vdB-31" value="veth" style="rounded=0;whiteSpace=wrap;html=1;strokeWidth=0.5;fillColor=#dae8fc;strokeColor=#6c8ebf;dashed=1;comic=0;" parent="1" vertex="1">
          <mxGeometry x="685" y="290" width="30" height="30" as="geometry" />
        </mxCell>
        <mxCell id="XjlNCTNv254b6shq8vdB-32" value="12" style="endArrow=classic;startArrow=classic;html=1;rounded=0;entryX=0.5;entryY=1;entryDx=0;entryDy=0;exitX=0.5;exitY=0;exitDx=0;exitDy=0;comic=0;" parent="1" source="XjlNCTNv254b6shq8vdB-31" target="XjlNCTNv254b6shq8vdB-30" edge="1">
          <mxGeometry width="50" height="50" relative="1" as="geometry">
            <mxPoint x="410" y="380" as="sourcePoint" />
            <mxPoint x="460" y="330" as="targetPoint" />
          </mxGeometry>
        </mxCell>
        <mxCell id="XjlNCTNv254b6shq8vdB-33" value="&lt;font style=&quot;font-size: 11px;&quot;&gt;eth0&lt;/font&gt;" style="rounded=0;whiteSpace=wrap;html=1;strokeWidth=0.5;fillColor=#d5e8d4;strokeColor=#82b366;dashed=1;comic=0;" parent="1" vertex="1">
          <mxGeometry x="825" y="220" width="30" height="30" as="geometry" />
        </mxCell>
        <mxCell id="XjlNCTNv254b6shq8vdB-34" value="veth" style="rounded=0;whiteSpace=wrap;html=1;strokeWidth=0.5;fillColor=#d5e8d4;strokeColor=#82b366;dashed=1;comic=0;" parent="1" vertex="1">
          <mxGeometry x="825" y="290" width="30" height="30" as="geometry" />
        </mxCell>
        <mxCell id="XjlNCTNv254b6shq8vdB-35" value="" style="endArrow=classic;startArrow=classic;html=1;rounded=0;entryX=0.5;entryY=1;entryDx=0;entryDy=0;exitX=0.5;exitY=0;exitDx=0;exitDy=0;comic=0;" parent="1" source="XjlNCTNv254b6shq8vdB-34" target="XjlNCTNv254b6shq8vdB-33" edge="1">
          <mxGeometry width="50" height="50" relative="1" as="geometry">
            <mxPoint x="430" y="370" as="sourcePoint" />
            <mxPoint x="480" y="320" as="targetPoint" />
          </mxGeometry>
        </mxCell>
        <mxCell id="XjlNCTNv254b6shq8vdB-36" value="" style="whiteSpace=wrap;html=1;fillColor=#e1d5e7;fontSize=14;strokeColor=#9673a6;verticalAlign=top;strokeWidth=0.5;comic=0;" parent="1" vertex="1">
          <mxGeometry x="651" y="401" width="240" height="39" as="geometry" />
        </mxCell>
        <mxCell id="XjlNCTNv254b6shq8vdB-37" value="&lt;div&gt;&lt;br&gt;&lt;/div&gt;&lt;div&gt;flannel.1&lt;/div&gt;" style="text;html=1;strokeColor=none;fillColor=none;align=center;verticalAlign=middle;whiteSpace=wrap;rounded=0;comic=0;" parent="1" vertex="1">
          <mxGeometry x="740" y="411" width="60" height="10" as="geometry" />
        </mxCell>
        <mxCell id="XjlNCTNv254b6shq8vdB-38" value="2" style="endArrow=classic;startArrow=classic;html=1;rounded=0;entryX=0.5;entryY=1;entryDx=0;entryDy=0;exitX=0.5;exitY=0;exitDx=0;exitDy=0;comic=0;" parent="1" source="XjlNCTNv254b6shq8vdB-21" target="6a7d8f32e03d9370-61" edge="1">
          <mxGeometry x="0.0244" width="50" height="50" relative="1" as="geometry">
            <mxPoint x="379" y="300" as="sourcePoint" />
            <mxPoint x="379" y="260" as="targetPoint" />
            <mxPoint as="offset" />
          </mxGeometry>
        </mxCell>
        <mxCell id="XjlNCTNv254b6shq8vdB-40" value="10" style="endArrow=classic;startArrow=classic;html=1;rounded=0;entryX=0.5;entryY=1;entryDx=0;entryDy=0;comic=0;" parent="1" source="MxSaWljoCHivLz9KyoG4-2" target="XjlNCTNv254b6shq8vdB-36" edge="1">
          <mxGeometry width="50" height="50" relative="1" as="geometry">
            <mxPoint x="450" y="421" as="sourcePoint" />
            <mxPoint x="450" y="380" as="targetPoint" />
          </mxGeometry>
        </mxCell>
        <mxCell id="XjlNCTNv254b6shq8vdB-41" value="11" style="endArrow=classic;startArrow=classic;html=1;rounded=0;entryX=0.5;entryY=1;entryDx=0;entryDy=0;exitX=0.5;exitY=0;exitDx=0;exitDy=0;comic=0;" parent="1" source="XjlNCTNv254b6shq8vdB-36" target="XjlNCTNv254b6shq8vdB-26" edge="1">
          <mxGeometry width="50" height="50" relative="1" as="geometry">
            <mxPoint x="460" y="431" as="sourcePoint" />
            <mxPoint x="460" y="390" as="targetPoint" />
          </mxGeometry>
        </mxCell>
        <mxCell id="XjlNCTNv254b6shq8vdB-59" value="linux bridge" style="verticalLabelPosition=bottom;sketch=0;html=1;fillColor=#6ABD46;strokeColor=#ffffff;verticalAlign=top;align=center;points=[[0.085,0.085,0],[0.915,0.085,0],[0.915,0.915,0],[0.085,0.915,0],[0.25,0,0],[0.5,0,0],[0.75,0,0],[1,0.25,0],[1,0.5,0],[1,0.75,0],[0.75,1,0],[0.5,1,0],[0.25,1,0],[0,0.75,0],[0,0.5,0],[0,0.25,0]];pointerEvents=1;shape=mxgraph.cisco_safe.compositeIcon;bgIcon=mxgraph.cisco_safe.architecture.generic_appliance;resIcon=mxgraph.cisco_safe.architecture.switch;comic=0;" parent="1" vertex="1">
          <mxGeometry x="415" y="550" width="50" height="50" as="geometry" />
        </mxCell>
        <mxCell id="MxSaWljoCHivLz9KyoG4-1" value="" style="pointerEvents=1;shadow=0;dashed=0;html=1;strokeColor=none;fillColor=#4495D1;labelPosition=center;verticalLabelPosition=bottom;verticalAlign=top;align=center;outlineConnect=0;shape=mxgraph.veeam.2d.vnic;comic=0;" parent="1" vertex="1">
          <mxGeometry x="417.6" y="475.2" width="44.8" height="44.8" as="geometry" />
        </mxCell>
        <mxCell id="MxSaWljoCHivLz9KyoG4-2" value="" style="pointerEvents=1;shadow=0;dashed=0;html=1;strokeColor=none;fillColor=#4495D1;labelPosition=center;verticalLabelPosition=bottom;verticalAlign=top;align=center;outlineConnect=0;shape=mxgraph.veeam.2d.vnic;comic=0;" parent="1" vertex="1">
          <mxGeometry x="747.6" y="475.2" width="44.8" height="44.8" as="geometry" />
        </mxCell>
        <mxCell id="MxSaWljoCHivLz9KyoG4-3" value="3" style="endArrow=classic;startArrow=classic;html=1;rounded=0;entryX=0.5;entryY=1;entryDx=0;entryDy=0;comic=0;" parent="1" source="MxSaWljoCHivLz9KyoG4-1" target="XjlNCTNv254b6shq8vdB-21" edge="1">
          <mxGeometry width="50" height="50" relative="1" as="geometry">
            <mxPoint x="779" y="485" as="sourcePoint" />
            <mxPoint x="780" y="450" as="targetPoint" />
          </mxGeometry>
        </mxCell>
        <mxCell id="MxSaWljoCHivLz9KyoG4-5" value="&lt;b&gt;HOST1&lt;/b&gt;" style="text;html=1;strokeColor=none;fillColor=none;align=center;verticalAlign=middle;whiteSpace=wrap;rounded=0;comic=0;" parent="1" vertex="1">
          <mxGeometry x="410" y="90" width="60" height="30" as="geometry" />
        </mxCell>
        <mxCell id="MxSaWljoCHivLz9KyoG4-8" value="vNIC" style="text;html=1;strokeColor=none;fillColor=none;align=center;verticalAlign=middle;whiteSpace=wrap;rounded=0;comic=0;" parent="1" vertex="1">
          <mxGeometry x="425" y="487.6" width="30" height="20" as="geometry" />
        </mxCell>
        <mxCell id="MxSaWljoCHivLz9KyoG4-9" value="vNIC" style="text;html=1;strokeColor=none;fillColor=none;align=center;verticalAlign=middle;whiteSpace=wrap;rounded=0;comic=0;" parent="1" vertex="1">
          <mxGeometry x="756" y="487.6" width="30" height="20" as="geometry" />
        </mxCell>
        <mxCell id="MxSaWljoCHivLz9KyoG4-11" value="" style="sketch=0;outlineConnect=0;fontColor=#232F3E;gradientColor=none;fillColor=#67AB9F;strokeColor=none;dashed=0;verticalLabelPosition=bottom;verticalAlign=top;align=center;html=1;fontSize=12;fontStyle=0;aspect=fixed;pointerEvents=1;shape=mxgraph.aws4.internet;comic=0;" parent="1" vertex="1">
          <mxGeometry x="571" y="690" width="60" height="36.92" as="geometry" />
        </mxCell>
        <mxCell id="iFL5_eWSD0b4RR7BCdqi-3" value="linux bridge" style="verticalLabelPosition=bottom;sketch=0;html=1;fillColor=#6ABD46;strokeColor=#ffffff;verticalAlign=top;align=center;points=[[0.085,0.085,0],[0.915,0.085,0],[0.915,0.915,0],[0.085,0.915,0],[0.25,0,0],[0.5,0,0],[0.75,0,0],[1,0.25,0],[1,0.5,0],[1,0.75,0],[0.75,1,0],[0.5,1,0],[0.25,1,0],[0,0.75,0],[0,0.5,0],[0,0.25,0]];pointerEvents=1;shape=mxgraph.cisco_safe.compositeIcon;bgIcon=mxgraph.cisco_safe.architecture.generic_appliance;resIcon=mxgraph.cisco_safe.architecture.switch;comic=0;" parent="1" vertex="1">
          <mxGeometry x="745" y="550" width="50" height="50" as="geometry" />
        </mxCell>
        <mxCell id="iFL5_eWSD0b4RR7BCdqi-4" value="NIC" style="shadow=0;dashed=0;html=1;labelPosition=center;verticalLabelPosition=bottom;verticalAlign=top;align=center;outlineConnect=0;shape=mxgraph.veeam.3d.network_card;comic=0;" parent="1" vertex="1">
          <mxGeometry x="761" y="640" width="38" height="40" as="geometry" />
        </mxCell>
        <mxCell id="iFL5_eWSD0b4RR7BCdqi-6" value="&lt;b&gt;HOST2&lt;/b&gt;" style="text;html=1;strokeColor=none;fillColor=none;align=center;verticalAlign=middle;whiteSpace=wrap;rounded=0;comic=0;" parent="1" vertex="1">
          <mxGeometry x="741" y="90" width="60" height="30" as="geometry" />
        </mxCell>
        <mxCell id="iFL5_eWSD0b4RR7BCdqi-7" value="4" style="endArrow=classic;startArrow=classic;html=1;rounded=0;comic=0;" parent="1" edge="1">
          <mxGeometry width="50" height="50" relative="1" as="geometry">
            <mxPoint x="440" y="550" as="sourcePoint" />
            <mxPoint x="440" y="520" as="targetPoint" />
          </mxGeometry>
        </mxCell>
        <mxCell id="iFL5_eWSD0b4RR7BCdqi-8" value="5" style="endArrow=classic;startArrow=classic;html=1;rounded=0;entryX=0.5;entryY=1;entryDx=0;entryDy=0;comic=0;entryPerimeter=0;" parent="1" target="XjlNCTNv254b6shq8vdB-59" edge="1">
          <mxGeometry width="50" height="50" relative="1" as="geometry">
            <mxPoint x="440" y="645" as="sourcePoint" />
            <mxPoint x="440" y="610" as="targetPoint" />
          </mxGeometry>
        </mxCell>
        <mxCell id="iFL5_eWSD0b4RR7BCdqi-9" value="6" style="endArrow=classic;startArrow=classic;html=1;rounded=0;exitX=0.5;exitY=0.75;exitDx=0;exitDy=0;exitPerimeter=0;" parent="1" source="XjlNCTNv254b6shq8vdB-28" edge="1">
          <mxGeometry width="50" height="50" relative="1" as="geometry">
            <mxPoint x="160" y="700" as="sourcePoint" />
            <mxPoint x="570" y="710" as="targetPoint" />
            <Array as="points">
              <mxPoint x="429" y="710" />
            </Array>
          </mxGeometry>
        </mxCell>
        <mxCell id="iFL5_eWSD0b4RR7BCdqi-10" value="7" style="endArrow=classic;startArrow=classic;html=1;rounded=0;exitX=1.043;exitY=0.569;exitDx=0;exitDy=0;exitPerimeter=0;" parent="1" source="MxSaWljoCHivLz9KyoG4-11" edge="1">
          <mxGeometry width="50" height="50" relative="1" as="geometry">
            <mxPoint x="1110" y="680" as="sourcePoint" />
            <mxPoint x="780" y="670" as="targetPoint" />
            <Array as="points">
              <mxPoint x="780" y="711" />
            </Array>
          </mxGeometry>
        </mxCell>
        <mxCell id="iFL5_eWSD0b4RR7BCdqi-11" value="8" style="endArrow=classic;startArrow=classic;html=1;rounded=0;entryX=0.5;entryY=1;entryDx=0;entryDy=0;comic=0;entryPerimeter=0;" parent="1" edge="1">
          <mxGeometry width="50" height="50" relative="1" as="geometry">
            <mxPoint x="770" y="645" as="sourcePoint" />
            <mxPoint x="770" y="600" as="targetPoint" />
          </mxGeometry>
        </mxCell>
        <mxCell id="iFL5_eWSD0b4RR7BCdqi-12" value="9" style="endArrow=classic;startArrow=classic;html=1;rounded=0;comic=0;" parent="1" edge="1">
          <mxGeometry width="50" height="50" relative="1" as="geometry">
            <mxPoint x="769" y="550" as="sourcePoint" />
            <mxPoint x="769" y="520" as="targetPoint" />
          </mxGeometry>
        </mxCell>
      </root>
    </mxGraphModel>
  </diagram>
</mxfile>
